<svg width="32" height="32" viewBox="0 0 32 32" fill="none" xmlns="http://www.w3.org/2000/svg">
<path d="M24 25.1463H22.9867C21.92 25.1463 20.9067 25.5596 20.16 26.3063L17.88 28.5597C16.84 29.5864 15.1467 29.5864 14.1067 28.5597L11.8267 26.3063C11.08 25.5596 10.0533 25.1463 9 25.1463H8C5.78667 25.1463 4 23.373 4 21.1864V6.63965C4 4.45298 5.78667 2.67969 8 2.67969H24C26.2133 2.67969 28 4.45298 28 6.63965V21.1864C28 23.3597 26.2133 25.1463 24 25.1463Z" stroke="white" stroke-width="1.5" stroke-miterlimit="10" stroke-linecap="round" stroke-linejoin="round"/>
<path d="M9.33203 12.2144C9.33203 10.9744 10.3454 9.96094 11.5854 9.96094C12.8254 9.96094 13.8387 10.9744 13.8387 12.2144C13.8387 14.721 10.2787 14.9877 9.49202 17.3743C9.33202 17.8677 9.74536 18.361 10.2654 18.361H13.8387" stroke="white" stroke-width="1.5" stroke-linecap="round" stroke-linejoin="round"/>
<path d="M21.3863 18.3465V10.7332C21.3863 10.3865 21.1597 10.0798 20.8263 9.98646C20.493 9.89313 20.133 10.0265 19.9464 10.3198C18.9864 11.8665 17.9464 13.6265 17.0397 15.1732C16.893 15.4265 16.893 15.7598 17.0397 16.0132C17.1864 16.2665 17.4664 16.4264 17.773 16.4264H22.6664" stroke="white" stroke-width="1.5" stroke-linecap="round" stroke-linejoin="round"/>
</svg>
